# xmcd
#
# Track frame offsets: 
#        183
#        17695
#        35705
#        52145
#        64303
#        81345
#        94148
#        106515
#        122835
#        141118
#        157488
#        175275
#        189230
#
# Disc length: 2686 seconds
#
# Revision: 3
# Processed by: cddbd v1.5.2PL0 Copyright (c) Steve Scherf et al.
# Submitted via: ExactAudioCopy v1.3
#
DISCID=b80a7c0d
DTITLE=Five O'Clock Jazz Group - C'est Si Bon
DYEAR=1900
DGENRE=Jazz
TTITLE0=C'est Si Bon
TTITLE1=Whispering
TTITLE2=Dream A Little Dream Of Me
TTITLE3=Ain't She Sweet
TTITLE4=When It's Sleepy Time Down South
TTITLE5=Bill Bailey Won't You Please Come Home
TTITLE6=Hello Dolly
TTITLE7=Moonglow
TTITLE8=Chistopher Columbus
TTITLE9=Saint James Infirmary
TTITLE10=You Made Me Love You
TTITLE11=Them There Eyes
TTITLE12=I've Found A New Baby
EXTD=
EXTT0=
EXTT1=
EXTT2=
EXTT3=
EXTT4=
EXTT5=
EXTT6=
EXTT7=
EXTT8=
EXTT9=
EXTT10=
EXTT11=
EXTT12=
PLAYORDER=
